<svg width="9" height="18" viewBox="0 0 9 18" fill="none" xmlns="http://www.w3.org/2000/svg">
<mask id="path-1-inside-1_338_469" fill="white">
<path d="M0.909975 17.6695C0.719975 17.6695 0.529976 17.5995 0.379976 17.4495C0.0899756 17.1595 0.0899756 16.6795 0.379976 16.3895L6.89998 9.86953C7.37998 9.38953 7.37998 8.60953 6.89998 8.12953L0.379976 1.60953C0.0899756 1.31953 0.0899756 0.839531 0.379976 0.549531C0.669976 0.259531 1.14998 0.259531 1.43998 0.549531L7.95998 7.06953C8.46998 7.57953 8.75998 8.26953 8.75998 8.99953C8.75998 9.72953 8.47998 10.4195 7.95998 10.9295L1.43998 17.4495C1.28998 17.5895 1.09998 17.6695 0.909975 17.6695Z"/>
</mask>
<path d="M0.909975 17.6695C0.719975 17.6695 0.529976 17.5995 0.379976 17.4495C0.0899756 17.1595 0.0899756 16.6795 0.379976 16.3895L6.89998 9.86953C7.37998 9.38953 7.37998 8.60953 6.89998 8.12953L0.379976 1.60953C0.0899756 1.31953 0.0899756 0.839531 0.379976 0.549531C0.669976 0.259531 1.14998 0.259531 1.43998 0.549531L7.95998 7.06953C8.46998 7.57953 8.75998 8.26953 8.75998 8.99953C8.75998 9.72953 8.47998 10.4195 7.95998 10.9295L1.43998 17.4495C1.28998 17.5895 1.09998 17.6695 0.909975 17.6695Z" fill="#292D32"/>
<path d="M0.379976 16.3895L-3.15556 12.854H-3.15556L0.379976 16.3895ZM6.89998 9.86953L10.4355 13.4051H10.4355L6.89998 9.86953ZM6.89998 8.12953L3.36444 11.6651V11.6651L6.89998 8.12953ZM0.379976 1.60953L3.91551 -1.926L0.379976 1.60953ZM1.43998 0.549531L-2.09556 4.08507L-2.09556 4.08507L1.43998 0.549531ZM7.95998 7.06953L11.4955 3.534L11.4955 3.534L7.95998 7.06953ZM7.95998 10.9295L4.45893 7.35984L4.4416 7.37684L4.42444 7.394L7.95998 10.9295ZM1.43998 17.4495L4.85157 21.1048L4.91457 21.046L4.97551 20.9851L1.43998 17.4495ZM0.909975 12.6695C1.97449 12.6695 3.07841 13.0769 3.91551 13.914L-3.15556 20.9851C-2.01846 22.1222 -0.534543 22.6695 0.909975 22.6695V12.6695ZM3.91551 13.914C5.57813 15.5766 5.57813 18.2624 3.91551 19.9251L-3.15556 12.854C-5.39818 15.0966 -5.39818 18.7424 -3.15556 20.9851L3.91551 13.914ZM3.91551 19.9251L10.4355 13.4051L3.36444 6.334L-3.15556 12.854L3.91551 19.9251ZM10.4355 13.4051C12.8681 10.9724 12.8681 7.02662 10.4355 4.594L3.36444 11.6651C1.89182 10.1924 1.89182 7.80662 3.36444 6.334L10.4355 13.4051ZM10.4355 4.594L3.91551 -1.926L-3.15556 5.14507L3.36444 11.6651L10.4355 4.594ZM3.91551 -1.926C5.57813 -0.263381 5.57813 2.42244 3.91551 4.08507L-3.15556 -2.986C-5.39818 -0.743381 -5.39818 2.90244 -3.15556 5.14507L3.91551 -1.926ZM3.91551 4.08507C2.25289 5.74769 -0.432937 5.74769 -2.09556 4.08507L4.97551 -2.986C2.73289 -5.22862 -0.912937 -5.22862 -3.15556 -2.986L3.91551 4.08507ZM-2.09556 4.08507L4.42444 10.6051L11.4955 3.534L4.97551 -2.986L-2.09556 4.08507ZM4.42444 10.6051C4.00468 10.1853 3.75998 9.60677 3.75998 8.99953H13.76C13.76 6.93229 12.9353 4.97376 11.4955 3.534L4.42444 10.6051ZM3.75998 8.99953C3.75998 8.43444 3.98656 7.82313 4.45893 7.35984L11.461 14.4992C12.9734 13.0159 13.76 11.0246 13.76 8.99953H3.75998ZM4.42444 7.394L-2.09556 13.914L4.97551 20.9851L11.4955 14.4651L4.42444 7.394ZM-1.97162 13.7943C-1.29948 13.1669 -0.301565 12.6695 0.909975 12.6695V22.6695C2.50152 22.6695 3.87943 22.0121 4.85157 21.1048L-1.97162 13.7943Z" fill="black" mask="url(#path-1-inside-1_338_469)"/>
</svg>
