<svg width="592" height="493" viewBox="0 0 592 493" fill="none" xmlns="http://www.w3.org/2000/svg">
<path d="M306.499 439.763C445.516 439.763 558.208 345.183 558.208 228.511C558.208 111.84 445.516 17.26 306.499 17.26C167.482 17.26 54.7866 111.84 54.7866 228.511C54.7866 345.183 167.482 439.763 306.499 439.763Z" stroke="#D1E8F7" stroke-width="1.91649" stroke-miterlimit="10"/>
<path d="M101.726 111.912C106.623 111.912 110.592 108.581 110.592 104.471C110.592 100.362 106.623 97.0308 101.726 97.0308C96.8303 97.0308 92.8608 100.362 92.8608 104.471C92.8608 108.581 96.8303 111.912 101.726 111.912Z" fill="#FEBB94"/>
<path d="M558.209 243.998C563.108 243.998 567.08 240.667 567.08 236.557C567.08 232.448 563.108 229.116 558.209 229.116C553.317 229.116 549.345 232.448 549.345 236.557C549.345 240.667 553.317 243.998 558.209 243.998Z" fill="#5661AE"/>
<path d="M316.824 447.204C321.72 447.204 325.689 443.873 325.689 439.764C325.689 435.654 321.72 432.323 316.824 432.323C311.927 432.323 307.958 435.654 307.958 439.764C307.958 443.873 311.927 447.204 316.824 447.204Z" fill="#27AE60"/>
<path d="M312.331 387.491C416.034 387.491 500.101 316.937 500.101 229.903C500.101 142.869 416.034 72.3147 312.331 72.3147C208.628 72.3147 124.56 142.869 124.56 229.903C124.56 316.937 208.628 387.491 312.331 387.491Z" stroke="#D1E8F7" stroke-width="1.42966" stroke-miterlimit="10"/>
<path d="M496.883 267.197C500.535 267.197 503.496 264.712 503.496 261.647C503.496 258.581 500.535 256.096 496.883 256.096C493.23 256.096 490.269 258.581 490.269 261.647C490.269 264.712 493.23 267.197 496.883 267.197Z" fill="#FEBB94"/>
<path d="M138.177 294.676C141.83 294.676 144.791 292.191 144.791 289.125C144.791 286.06 141.83 283.575 138.177 283.575C134.524 283.575 131.563 286.06 131.563 289.125C131.563 292.191 134.524 294.676 138.177 294.676Z" fill="#5661AE"/>
<path d="M228.222 94.4108C231.875 94.4108 234.836 91.9258 234.836 88.86C234.836 85.7948 231.875 83.3098 228.222 83.3098C224.57 83.3098 221.609 85.7948 221.609 88.86C221.609 91.9258 224.57 94.4108 228.222 94.4108Z" fill="#27AE60"/>
<path d="M410.059 404.411H193.213C183.805 404.411 176.912 398.011 177.817 390.115L214.834 66.9318C215.738 59.0362 224.097 52.6355 233.505 52.6355H450.351C459.758 52.6355 466.652 59.0362 465.747 66.9318L428.73 390.115C427.826 398.011 419.466 404.411 410.059 404.411Z" fill="#27AE60"/>
<path d="M394.775 404.411H177.93C168.523 404.411 161.629 398.011 162.533 390.115L199.55 66.9318C200.455 59.0362 208.814 52.6355 218.222 52.6355H435.068C444.475 52.6355 451.368 59.0362 450.464 66.9318L413.447 390.115C412.543 398.011 404.183 404.411 394.775 404.411Z" fill="#E6F4E5"/>
<path d="M386.559 393.668H188.61C179.891 393.668 173.502 387.737 174.34 380.419L209.136 76.6283C209.975 69.3112 217.722 63.3799 226.44 63.3799H424.389C433.108 63.3799 439.496 69.3112 438.658 76.6283L403.862 380.419C403.024 387.737 395.277 393.668 386.559 393.668Z" fill="white"/>
<path d="M402.433 201.579L190.084 201.42C189.216 201.44 188.354 201.304 187.554 201.022C186.754 200.74 186.035 200.318 185.446 199.784C184.855 199.25 184.408 198.616 184.133 197.926C183.858 197.235 183.762 196.503 183.851 195.778L195.299 89.0927C195.506 87.5531 196.378 86.1306 197.749 85.0934C199.12 84.0556 200.895 83.4754 202.741 83.4607L415.09 83.6191C415.957 83.5997 416.82 83.7352 417.62 84.0173C418.419 84.3 419.139 84.7218 419.728 85.256C420.318 85.7902 420.765 86.4234 421.04 87.1143C421.316 87.8046 421.412 88.5367 421.323 89.2612L409.875 195.947C409.667 197.486 408.796 198.909 407.425 199.947C406.054 200.984 404.278 201.565 402.433 201.579Z" fill="#E6F4E5"/>
<path d="M395.746 316.534H305.995C305.333 316.545 304.676 316.436 304.068 316.216C303.46 315.996 302.916 315.668 302.472 315.256C302.028 314.844 301.695 314.356 301.495 313.826C301.294 313.297 301.233 312.737 301.312 312.186L312.21 217.041C312.367 215.861 313.029 214.77 314.074 213.97C315.119 213.17 316.474 212.716 317.889 212.693H407.641C408.303 212.681 408.96 212.79 409.567 213.011C410.175 213.231 410.719 213.559 411.163 213.971C411.607 214.383 411.941 214.87 412.141 215.4C412.341 215.93 412.403 216.489 412.323 217.041L401.426 312.186C401.268 313.365 400.606 314.457 399.561 315.256C398.517 316.056 397.161 316.51 395.746 316.534Z" fill="#E6F4E5"/>
<path d="M374.35 264.047C384.472 255.951 385.573 243.132 376.81 235.416C368.047 227.699 352.738 228.007 342.616 236.103C332.495 244.2 331.393 257.018 340.157 264.735C348.919 272.451 364.228 272.143 374.35 264.047Z" stroke="#EF6A77" stroke-width="11.6898" stroke-miterlimit="10"/>
<path d="M347.105 268.791C338.709 265.748 333.387 258.514 334.353 250.075C335.634 238.891 347.476 229.824 360.802 229.824" stroke="white" stroke-width="11.6898" stroke-miterlimit="10" stroke-linecap="round"/>
<path d="M345.113 286.199H363.578" stroke="white" stroke-width="5.98374" stroke-miterlimit="10" stroke-linecap="round"/>
<path d="M343.102 303.75H361.567" stroke="white" stroke-width="5.98374" stroke-miterlimit="10" stroke-linecap="round"/>
<path opacity="0.4" d="M334.271 294.875H372.431" stroke="white" stroke-width="5.98374" stroke-miterlimit="10" stroke-linecap="round"/>
<path d="M285.986 316.534H196.234C195.572 316.545 194.915 316.436 194.307 316.216C193.7 315.996 193.155 315.668 192.711 315.256C192.268 314.844 191.934 314.356 191.734 313.826C191.534 313.297 191.472 312.737 191.551 312.186L202.449 217.041C202.606 215.861 203.269 214.77 204.314 213.97C205.359 213.17 206.714 212.716 208.128 212.693H297.88C298.542 212.681 299.199 212.79 299.807 213.011C300.414 213.231 300.958 213.559 301.402 213.971C301.847 214.383 302.18 214.87 302.38 215.4C302.58 215.93 302.643 216.489 302.563 217.041L291.665 312.186C291.508 313.365 290.845 314.457 289.8 315.256C288.756 316.056 287.4 316.51 285.986 316.534Z" fill="#FEBB94"/>
<path d="M264.589 264.047C274.71 255.951 275.812 243.132 267.049 235.416C258.286 227.699 242.976 228.007 232.855 236.103C222.733 244.2 221.632 257.018 230.395 264.735C239.158 272.451 254.467 272.143 264.589 264.047Z" stroke="#EF6A77" stroke-width="11.6898" stroke-miterlimit="10"/>
<path d="M272.852 250.075C271.571 261.26 259.729 270.326 246.403 270.326C233.076 270.326 223.311 261.26 224.592 250.075C225.873 238.891 237.715 229.824 251.042 229.824" stroke="white" stroke-width="11.6898" stroke-miterlimit="10" stroke-linecap="round"/>
<path d="M235.353 286.199H253.817" stroke="white" stroke-width="5.98374" stroke-miterlimit="10" stroke-linecap="round"/>
<path d="M233.341 303.75H251.807" stroke="white" stroke-width="5.98374" stroke-miterlimit="10" stroke-linecap="round"/>
<path opacity="0.4" d="M224.511 294.875H262.671" stroke="white" stroke-width="5.98374" stroke-miterlimit="10" stroke-linecap="round"/>
<path d="M388.223 384.586H188.168C187.541 384.596 186.918 384.494 186.343 384.285C185.767 384.076 185.251 383.765 184.83 383.375C184.409 382.984 184.093 382.523 183.903 382.02C183.714 381.518 183.655 380.988 183.73 380.465L189.7 328.347C189.849 327.229 190.477 326.194 191.467 325.436C192.458 324.678 193.742 324.248 195.082 324.225H395.137C395.764 324.215 396.387 324.318 396.963 324.527C397.538 324.736 398.054 325.046 398.475 325.437C398.896 325.827 399.211 326.289 399.402 326.791C399.591 327.293 399.65 327.824 399.575 328.347L393.605 380.465C393.456 381.583 392.828 382.617 391.838 383.375C390.848 384.134 389.563 384.564 388.223 384.586Z" fill="#E6F4E5"/>
<path d="M202.1 372.502L204.922 347.863" stroke="white" stroke-width="11.6898" stroke-miterlimit="10" stroke-linecap="round"/>
<path d="M222.808 355.242L220.831 372.502" stroke="white" stroke-width="11.6898" stroke-miterlimit="10" stroke-linecap="round"/>
<path d="M240.862 361.136L239.56 372.502" stroke="white" stroke-width="11.6898" stroke-miterlimit="10" stroke-linecap="round"/>
<path d="M261.845 341.459L258.29 372.502" stroke="white" stroke-width="11.6898" stroke-miterlimit="10" stroke-linecap="round"/>
<path d="M278.322 361.136L277.02 372.502" stroke="white" stroke-width="11.6898" stroke-miterlimit="10" stroke-linecap="round"/>
<path d="M299.149 342.831L295.75 372.502" stroke="white" stroke-width="11.6898" stroke-miterlimit="10" stroke-linecap="round"/>
<path d="M315.891 360.182L314.48 372.502" stroke="white" stroke-width="11.6898" stroke-miterlimit="10" stroke-linecap="round"/>
<path d="M333.962 365.939L333.21 372.502" stroke="white" stroke-width="11.6898" stroke-miterlimit="10" stroke-linecap="round"/>
<path d="M354.762 347.863L351.94 372.502" stroke="white" stroke-width="11.6898" stroke-miterlimit="10" stroke-linecap="round"/>
<path d="M374.566 338.481L370.669 372.502" stroke="white" stroke-width="11.6898" stroke-miterlimit="10" stroke-linecap="round"/>
<path d="M207.284 185.219L218.527 200C219.035 200.668 219.207 201.476 219.008 202.249C218.808 203.023 218.253 203.699 217.462 204.13L215.645 205.121C212.603 206.78 208.948 207.455 205.357 207.022C201.767 206.589 198.486 205.076 196.124 202.765L181.204 188.163L207.284 185.219Z" fill="#FFCCB3"/>
<path d="M198.706 190.907C198.706 190.907 202.869 202.904 211.232 206.753C213.404 206.047 215.49 205.169 217.462 204.131L208.084 190.907" fill="#FCBA9F"/>
<path d="M6.36084 244.857L50.5225 227.096C54.6836 225.423 58.2018 222.803 60.6778 219.535L103.34 163.212C105.995 159.706 109.848 156.951 114.395 155.307L175.841 133.09L162.686 216.581L162.454 219.665C162.454 219.665 146.202 254.991 106.369 267.824L42.6825 300.516L6.36084 244.857Z" fill="#FFCCB3"/>
<path d="M54.4213 225.137C54.4213 225.137 75.3115 268.897 106.37 267.825L86.5398 278.004C86.5398 278.004 19.2337 267.526 44.4282 229.461L54.4213 225.137Z" fill="#FCBA9F"/>
<path d="M166.33 148.542C166.33 148.542 144.605 159.59 145.757 185.219L171.847 177.037L166.33 148.542Z" fill="#FCBA9F"/>
<path d="M220.906 185.219L232.149 200C232.657 200.668 232.829 201.476 232.63 202.249C232.431 203.023 231.875 203.699 231.084 204.13L229.267 205.121C226.225 206.78 222.569 207.455 218.979 207.022C215.388 206.589 212.107 205.076 209.746 202.765L194.827 188.163L220.906 185.219Z" fill="#FFCCB3"/>
<path d="M387.118 191.048L174.769 190.89C173.902 190.909 173.039 190.774 172.24 190.491C171.44 190.209 170.721 189.786 170.131 189.253C169.541 188.718 169.094 188.085 168.819 187.394C168.544 186.703 168.448 185.972 168.537 185.247L179.985 78.5613C180.192 77.0216 181.063 75.5992 182.435 74.5619C183.805 73.5247 185.581 72.9439 187.427 72.9292L399.775 73.0882C400.643 73.0682 401.505 73.2043 402.305 73.4864C403.105 73.7685 403.824 74.1908 404.414 74.7245C405.004 75.2587 405.451 75.8925 405.726 76.5828C406.001 77.2737 406.097 78.0058 406.009 78.7297L394.561 185.416C394.353 186.956 393.481 188.378 392.111 189.415C390.739 190.453 388.964 191.033 387.118 191.048Z" fill="#27AE60"/>
<path d="M188.829 136.222C188.829 136.222 207.89 132.986 213.02 140.493C218.15 147.999 222.573 162.096 236.222 160.279C249.871 158.462 260.319 121.605 273.737 121.942C287.156 122.278 282.425 146.417 297.03 146.754C311.635 147.09 309.037 133.27 318.772 133.655C330.58 134.122 326.178 162.76 341.574 163.097C356.971 163.435 359.483 125.27 382.758 125.94" stroke="white" stroke-width="7.56507" stroke-miterlimit="10" stroke-linecap="round"/>
<path d="M199.67 90.7974L237.03 90.825" stroke="white" stroke-width="11.9991" stroke-miterlimit="10" stroke-linecap="round"/>
<path opacity="0.4" d="M198.128 105.17L275.334 105.228" stroke="white" stroke-width="11.9991" stroke-miterlimit="10" stroke-linecap="round"/>
<path d="M125.84 190.519L153.08 180.449L180.937 164.49C188.263 160.293 203.563 158.402 209.071 164.237C214.673 170.172 208.38 181.912 201.585 186.892L175.841 205.76L162.453 219.665L125.84 190.519Z" fill="#FFCCB3"/>
<path d="M181.204 170.55C181.204 170.55 184.882 182.451 194.416 184.511L204.53 177.34C205.555 176.699 206.414 175.89 207.055 174.962C207.695 174.033 208.104 173.004 208.256 171.939C208.407 170.874 208.299 169.794 207.937 168.765C207.575 167.736 206.967 166.779 206.15 165.954C204.723 164.512 202.733 163.543 200.533 163.219C198.334 162.895 196.069 163.238 194.143 164.186L181.204 170.55Z" stroke="#FF967C" stroke-width="3" stroke-linecap="round"/>
<path d="M52.2009 225.625C52.2009 225.625 46.9219 257.31 92.8612 275.453C92.8612 275.453 59.8605 300.859 47.1373 305.131C34.4148 309.403 -13.3878 265.748 3.61431 240.969C8.38243 234.021 52.2009 225.625 52.2009 225.625Z" fill="#27AE60"/>
<path d="M226.265 192.265C226.265 192.265 208.36 192.572 202.127 195.309L197.628 190.906L225.232 190.907L226.265 192.265Z" fill="#FCBA9F"/>
<path d="M555.949 191.048H428.637C419.046 191.048 411.96 184.523 412.809 176.474L429.891 14.5731C430.74 6.52498 439.202 0 448.793 0H576.105C585.699 0 592.78 6.52498 591.931 14.5731L574.849 176.474C574 184.523 565.536 191.048 555.949 191.048Z" fill="#FEBB94"/>
<path d="M537.723 91.4186C557.886 75.2322 559.914 49.5569 542.264 34.0714C524.611 18.5859 493.958 19.1537 473.799 35.3402C453.64 51.5266 451.607 77.2018 469.26 92.6873C486.913 108.173 517.566 107.605 537.723 91.4186Z" fill="#E6F4E5"/>
<path d="M508.459 64.6396L540.418 89.1021C540.418 89.1021 547.689 82.5436 549.857 77.8563L508.459 64.6396Z" fill="url(#paint0_linear_206_836)"/>
<path d="M510.587 17.6484L506.046 60.6911C505.945 61.475 506.12 62.2666 506.548 62.9687C506.977 63.6702 507.642 64.251 508.459 64.6397L551.823 84.9003C551.823 84.9003 577.572 24.6105 510.587 17.6484Z" fill="#27AE60"/>
<path d="M442.714 133.745H495.457" stroke="white" stroke-width="12" stroke-miterlimit="10" stroke-linecap="round"/>
<path d="M438.854 170.34H491.596" stroke="white" stroke-width="12" stroke-miterlimit="10" stroke-linecap="round"/>
<path opacity="0.4" d="M440.806 151.836H549.801" stroke="white" stroke-width="12" stroke-miterlimit="10" stroke-linecap="round"/>
<path d="M399.378 310.319C399.378 310.319 416.379 306.514 425.428 314.691C425.428 314.691 441.692 312.213 448.304 319.806C448.304 319.806 462.723 320.507 466.899 325.443C470.371 325.845 473.655 327.012 476.415 328.825C479.176 330.638 481.315 333.033 482.614 335.766C486.557 343.565 483.212 388.653 479.293 404.81C478.314 408.852 478.649 413.039 480.265 416.934L490.234 440.976L421.262 465.174L404.887 429.33C404.887 429.33 384.955 402.447 382.107 397.668C379.26 392.888 384.086 353.229 374.365 328.454L399.378 310.319Z" fill="#FFCCB3"/>
<path d="M413.783 448.803L411.793 444.448C411.793 444.448 447.582 442.528 480.265 416.934L483.391 424.473C483.391 424.473 479.354 440.046 460.975 447.386C442.595 454.726 413.783 448.803 413.783 448.803Z" fill="#FCBA9F"/>
<path d="M413.783 448.804C413.783 448.804 457.104 452.115 483.391 424.473C483.391 424.473 493.097 428.743 508 460.008C512.577 469.611 436.143 503.801 423.785 489.589C423.785 489.589 413.116 470.649 413.783 448.804Z" fill="#27AE60"/>
<path d="M378.605 343.41C378.605 343.41 377.111 350.063 370.045 350.064C365.436 350.064 345.456 344.998 332.12 341.476C328.492 340.517 324.599 340.517 320.971 341.476C317.343 342.434 314.152 344.305 311.832 346.834L311.021 347.717C310.619 348.155 310.327 348.657 310.162 349.193C309.997 349.728 309.964 350.286 310.064 350.833C310.163 351.379 310.394 351.903 310.742 352.373C311.09 352.843 311.549 353.248 312.089 353.564C323.379 360.179 353.867 378.133 357.766 381.406C362.565 385.433 389.286 408.011 389.286 408.011L378.605 343.41Z" fill="#FFCCB3"/>
<path d="M376.982 336.743C376.982 336.743 391.423 353.148 389.285 356.74C387.148 360.331 364.755 349.351 364.755 349.351C364.755 349.351 382.824 353.252 376.982 336.743Z" fill="#FCBA9F"/>
<path d="M374.365 328.454L350.064 266.521C349.231 264.396 348.914 262.153 349.133 259.924C349.352 257.695 350.102 255.525 351.339 253.544C352.576 251.563 354.274 249.81 356.332 248.39C358.391 246.97 360.769 245.911 363.325 245.276C365.417 244.757 367.662 244.897 369.639 245.671C371.616 246.445 373.187 247.799 374.057 249.478L408.147 315.245L374.365 328.454Z" fill="#FFCCB3"/>
<path d="M363.827 301.596C364.516 302.546 365.431 303.366 366.514 304.004C367.599 304.643 368.828 305.087 370.126 305.308" stroke="#FF967C" stroke-width="3" stroke-linecap="round"/>
<path d="M372.57 269.891C375.527 268.792 378.789 267.255 380.191 265.462L371.143 247.43C370.949 247.042 370.659 246.692 370.292 246.405C369.925 246.118 369.49 245.899 369.015 245.764C368.54 245.628 368.036 245.579 367.536 245.62C367.037 245.66 366.553 245.789 366.118 245.999C362.898 247.558 358.648 250.372 358.483 254.413L364.603 267.194C364.903 267.819 365.35 268.385 365.917 268.861C366.484 269.337 367.16 269.712 367.903 269.964C368.647 270.216 369.444 270.339 370.246 270.327C371.048 270.314 371.838 270.166 372.57 269.891Z" stroke="#FF967C" stroke-width="3" stroke-linecap="round"/>
<path d="M405.405 309.955L413.783 325.443" stroke="#FF967C" stroke-width="3" stroke-linecap="round"/>
<path d="M425.762 315.008C430.019 320.13 432.301 326.226 432.299 332.471" stroke="#FF967C" stroke-width="3" stroke-linecap="round"/>
<path d="M448.704 320.096C448.704 320.096 452.921 328.213 453.269 334.632" stroke="#FF967C" stroke-width="3" stroke-linecap="round"/>
<path d="M467.489 325.924C469.15 329.349 469.794 333.062 469.365 336.743" stroke="#FF967C" stroke-width="3" stroke-linecap="round"/>
<path d="M329.932 361.136C329.932 361.136 334.922 355.817 333.21 353.15C331.498 350.482 323.884 346.71 319.484 347.12C317.384 347.386 315.358 347.965 313.502 348.831C313.165 348.979 312.88 349.198 312.675 349.468C312.47 349.737 312.352 350.046 312.333 350.366C312.315 350.685 312.396 351.003 312.568 351.287C312.742 351.572 313 351.815 313.318 351.99L329.932 361.136Z" stroke="#FF967C" stroke-width="3" stroke-linecap="round"/>
<path d="M244.12 425.988H92.0963C91.4689 425.998 90.8464 425.895 90.2702 425.686C89.694 425.477 89.1782 425.166 88.7578 424.776C88.3367 424.385 88.0209 423.923 87.8314 423.421C87.6412 422.919 87.5822 422.389 87.658 421.866L93.6277 369.747C93.7764 368.629 94.4046 367.595 95.3948 366.837C96.3851 366.079 97.6694 365.649 99.0099 365.626H251.034C251.661 365.616 252.284 365.719 252.859 365.928C253.436 366.137 253.951 366.447 254.373 366.837C254.793 367.229 255.109 367.69 255.299 368.192C255.488 368.695 255.547 369.225 255.472 369.747L249.503 421.866C249.353 422.984 248.725 424.019 247.735 424.777C246.745 425.535 245.46 425.965 244.12 425.988Z" fill="#FEBB94"/>
<path d="M106.369 379.218H200.189" stroke="#EF6A77" stroke-width="11.6898" stroke-miterlimit="10" stroke-linecap="round"/>
<path d="M106.369 379.218H171.565" stroke="white" stroke-width="11.6898" stroke-miterlimit="10" stroke-linecap="round"/>
<path d="M104.966 395.807H198.786" stroke="#EF6A77" stroke-width="11.6898" stroke-miterlimit="10" stroke-linecap="round"/>
<path d="M104.966 395.807H143.945" stroke="white" stroke-width="11.6898" stroke-miterlimit="10" stroke-linecap="round"/>
<path d="M101.898 412.396H195.719" stroke="#EF6A77" stroke-width="11.6898" stroke-miterlimit="10" stroke-linecap="round"/>
<path d="M101.898 412.396H125.735" stroke="white" stroke-width="11.6898" stroke-miterlimit="10" stroke-linecap="round"/>
<path d="M233.4 383.923C236.496 383.923 239.006 381.816 239.006 379.218C239.006 376.619 236.496 374.513 233.4 374.513C230.304 374.513 227.794 376.619 227.794 379.218C227.794 381.816 230.304 383.923 233.4 383.923Z" fill="white"/>
<path d="M231.583 399.786C234.679 399.786 237.189 397.679 237.189 395.081C237.189 392.483 234.679 390.376 231.583 390.376C228.486 390.376 225.977 392.483 225.977 395.081C225.977 397.679 228.486 399.786 231.583 399.786Z" fill="white"/>
<path d="M229.553 417.101C232.649 417.101 235.159 414.994 235.159 412.396C235.159 409.797 232.649 407.691 229.553 407.691C226.457 407.691 223.947 409.797 223.947 412.396C223.947 414.994 226.457 417.101 229.553 417.101Z" fill="white"/>
<defs>
<linearGradient id="paint0_linear_206_836" x1="528.126" y1="64.5813" x2="531.476" y2="116.843" gradientUnits="userSpaceOnUse">
<stop stop-color="white"/>
<stop offset="1" stop-color="#94B9FF"/>
</linearGradient>
</defs>
</svg>
