<svg width="164" height="72" viewBox="0 0 164 72" fill="none" xmlns="http://www.w3.org/2000/svg">
<g clip-path="url(#clip0_357_169)">
<path d="M16.0088 55.708H12.96V64H10.9092V55.708H7.90137V54.0469H16.0088V55.708ZM20.7598 58.4561C20.4909 58.4196 20.2539 58.4014 20.0488 58.4014C19.3014 58.4014 18.8115 58.6543 18.5791 59.1602V64H16.6035V56.6035H18.4697L18.5244 57.4854C18.9209 56.8063 19.4701 56.4668 20.1719 56.4668C20.3906 56.4668 20.5957 56.4964 20.7871 56.5557L20.7598 58.4561ZM25.7979 64C25.7067 63.8223 25.6406 63.6012 25.5996 63.3369C25.1211 63.8701 24.499 64.1367 23.7334 64.1367C23.0088 64.1367 22.4072 63.9271 21.9287 63.5078C21.4548 63.0885 21.2178 62.5599 21.2178 61.9219C21.2178 61.138 21.5072 60.5365 22.0859 60.1172C22.6693 59.6979 23.5101 59.486 24.6084 59.4814H25.5176V59.0576C25.5176 58.7158 25.4287 58.4424 25.251 58.2373C25.0778 58.0322 24.8021 57.9297 24.4238 57.9297C24.0911 57.9297 23.8291 58.0094 23.6377 58.1689C23.4508 58.3285 23.3574 58.5472 23.3574 58.8252H21.3818C21.3818 58.3968 21.514 58.0003 21.7783 57.6357C22.0426 57.2712 22.4163 56.9863 22.8994 56.7812C23.3825 56.5716 23.9248 56.4668 24.5264 56.4668C25.4378 56.4668 26.1602 56.6969 26.6934 57.1572C27.2311 57.613 27.5 58.2555 27.5 59.085V62.291C27.5046 62.9928 27.6025 63.5238 27.7939 63.8838V64H25.7979ZM24.1641 62.626C24.4557 62.626 24.7246 62.5622 24.9707 62.4346C25.2168 62.3024 25.3991 62.127 25.5176 61.9082V60.6367H24.7793C23.7904 60.6367 23.264 60.9785 23.2002 61.6621L23.1934 61.7783C23.1934 62.0244 23.2799 62.2272 23.4531 62.3867C23.6263 62.5462 23.8633 62.626 24.1641 62.626ZM30.8359 56.6035L30.8975 57.458C31.4261 56.7972 32.1348 56.4668 33.0234 56.4668C33.8073 56.4668 34.3906 56.6969 34.7734 57.1572C35.1562 57.6175 35.3522 58.3057 35.3613 59.2217V64H33.3857V59.2695C33.3857 58.8503 33.2946 58.5472 33.1123 58.3604C32.93 58.1689 32.627 58.0732 32.2031 58.0732C31.6471 58.0732 31.2301 58.3102 30.9521 58.7842V64H28.9766V56.6035H30.8359ZM40.8711 61.9561C40.8711 61.7145 40.7503 61.5254 40.5088 61.3887C40.2718 61.2474 39.889 61.1221 39.3604 61.0127C37.6012 60.6436 36.7217 59.8962 36.7217 58.7705C36.7217 58.1143 36.9928 57.5674 37.5352 57.1299C38.082 56.6878 38.7952 56.4668 39.6748 56.4668C40.6136 56.4668 41.3633 56.6878 41.9238 57.1299C42.4889 57.5719 42.7715 58.1462 42.7715 58.8525H40.7959C40.7959 58.57 40.7048 58.3376 40.5225 58.1553C40.3402 57.9684 40.0553 57.875 39.668 57.875C39.3353 57.875 39.0778 57.9502 38.8955 58.1006C38.7132 58.251 38.6221 58.4424 38.6221 58.6748C38.6221 58.8936 38.7246 59.0713 38.9297 59.208C39.1393 59.3402 39.4902 59.4564 39.9824 59.5566C40.4746 59.6523 40.8893 59.7617 41.2266 59.8848C42.2702 60.2676 42.792 60.9307 42.792 61.874C42.792 62.5485 42.5026 63.0954 41.9238 63.5146C41.3451 63.9294 40.5977 64.1367 39.6816 64.1367C39.0618 64.1367 38.5104 64.0273 38.0273 63.8086C37.5488 63.5853 37.1729 63.2822 36.8994 62.8994C36.626 62.512 36.4893 62.0951 36.4893 61.6484H38.3623C38.3805 61.9993 38.5104 62.2682 38.752 62.4551C38.9935 62.6419 39.3171 62.7354 39.7227 62.7354C40.1009 62.7354 40.3857 62.6647 40.5771 62.5234C40.7731 62.3776 40.8711 62.1885 40.8711 61.9561ZM50.7285 60.3701C50.7285 61.5094 50.4688 62.4232 49.9492 63.1113C49.4342 63.7949 48.737 64.1367 47.8574 64.1367C47.11 64.1367 46.5062 63.877 46.0459 63.3574V66.8438H44.0703V56.6035H45.9023L45.9707 57.3281C46.4492 56.7539 47.0736 56.4668 47.8438 56.4668C48.7552 56.4668 49.4639 56.804 49.9697 57.4785C50.4756 58.153 50.7285 59.0827 50.7285 60.2676V60.3701ZM48.7529 60.2266C48.7529 59.5384 48.6299 59.0075 48.3838 58.6338C48.1423 58.2601 47.7891 58.0732 47.3242 58.0732C46.7044 58.0732 46.2783 58.3102 46.0459 58.7842V61.8125C46.2874 62.3001 46.7181 62.5439 47.3379 62.5439C48.2812 62.5439 48.7529 61.7715 48.7529 60.2266ZM51.6514 60.2334C51.6514 59.4997 51.7926 58.8457 52.0752 58.2715C52.3577 57.6973 52.7633 57.2529 53.292 56.9385C53.8252 56.624 54.4427 56.4668 55.1445 56.4668C56.1426 56.4668 56.9561 56.7721 57.585 57.3828C58.2184 57.9935 58.5716 58.8229 58.6445 59.8711L58.6582 60.377C58.6582 61.5117 58.3415 62.4232 57.708 63.1113C57.0745 63.7949 56.2246 64.1367 55.1582 64.1367C54.0918 64.1367 53.2396 63.7949 52.6016 63.1113C51.9681 62.4277 51.6514 61.498 51.6514 60.3223V60.2334ZM53.627 60.377C53.627 61.0788 53.7591 61.6165 54.0234 61.9902C54.2878 62.3594 54.666 62.5439 55.1582 62.5439C55.6367 62.5439 56.0104 62.3617 56.2793 61.9971C56.5482 61.6279 56.6826 61.04 56.6826 60.2334C56.6826 59.5452 56.5482 59.012 56.2793 58.6338C56.0104 58.2555 55.6322 58.0664 55.1445 58.0664C54.6615 58.0664 54.2878 58.2555 54.0234 58.6338C53.7591 59.0075 53.627 59.5885 53.627 60.377ZM64.0312 58.4561C63.7624 58.4196 63.5254 58.4014 63.3203 58.4014C62.5729 58.4014 62.083 58.6543 61.8506 59.1602V64H59.875V56.6035H61.7412L61.7959 57.4854C62.1924 56.8063 62.7415 56.4668 63.4434 56.4668C63.6621 56.4668 63.8672 56.4964 64.0586 56.5557L64.0312 58.4561ZM67.6953 54.7852V56.6035H68.96V58.0527H67.6953V61.7441C67.6953 62.0176 67.7477 62.2135 67.8525 62.332C67.9574 62.4505 68.1579 62.5098 68.4541 62.5098C68.6729 62.5098 68.8665 62.4938 69.0352 62.4619V63.959C68.6478 64.0775 68.249 64.1367 67.8389 64.1367C66.4535 64.1367 65.7471 63.4372 65.7197 62.0381V58.0527H64.6396V56.6035H65.7197V54.7852H67.6953ZM73.6768 64V54.0469H76.7393C77.6143 54.0469 78.3958 54.2451 79.084 54.6416C79.7767 55.0335 80.3167 55.5941 80.7041 56.3232C81.0915 57.0479 81.2852 57.8727 81.2852 58.7979V59.2559C81.2852 60.181 81.0938 61.0036 80.7109 61.7236C80.3327 62.4437 79.7972 63.002 79.1045 63.3984C78.4118 63.7949 77.6302 63.9954 76.7598 64H73.6768ZM75.7275 55.708V62.3525H76.7188C77.5208 62.3525 78.1338 62.0905 78.5576 61.5664C78.9814 61.0423 79.1979 60.2926 79.207 59.3174V58.791C79.207 57.7793 78.9974 57.0137 78.5781 56.4941C78.1589 55.9701 77.5459 55.708 76.7393 55.708H75.7275ZM86.9385 64C86.8473 63.8223 86.7812 63.6012 86.7402 63.3369C86.2617 63.8701 85.6396 64.1367 84.874 64.1367C84.1494 64.1367 83.5479 63.9271 83.0693 63.5078C82.5954 63.0885 82.3584 62.5599 82.3584 61.9219C82.3584 61.138 82.6478 60.5365 83.2266 60.1172C83.8099 59.6979 84.6507 59.486 85.749 59.4814H86.6582V59.0576C86.6582 58.7158 86.5693 58.4424 86.3916 58.2373C86.2184 58.0322 85.9427 57.9297 85.5645 57.9297C85.2318 57.9297 84.9697 58.0094 84.7783 58.1689C84.5915 58.3285 84.498 58.5472 84.498 58.8252H82.5225C82.5225 58.3968 82.6546 58.0003 82.9189 57.6357C83.1833 57.2712 83.557 56.9863 84.04 56.7812C84.5231 56.5716 85.0654 56.4668 85.667 56.4668C86.5785 56.4668 87.3008 56.6969 87.834 57.1572C88.3717 57.613 88.6406 58.2555 88.6406 59.085V62.291C88.6452 62.9928 88.7432 63.5238 88.9346 63.8838V64H86.9385ZM85.3047 62.626C85.5964 62.626 85.8652 62.5622 86.1113 62.4346C86.3574 62.3024 86.5397 62.127 86.6582 61.9082V60.6367H85.9199C84.931 60.6367 84.4046 60.9785 84.3408 61.6621L84.334 61.7783C84.334 62.0244 84.4206 62.2272 84.5938 62.3867C84.7669 62.5462 85.0039 62.626 85.3047 62.626ZM92.5234 54.7852V56.6035H93.7881V58.0527H92.5234V61.7441C92.5234 62.0176 92.5758 62.2135 92.6807 62.332C92.7855 62.4505 92.986 62.5098 93.2822 62.5098C93.501 62.5098 93.6947 62.4938 93.8633 62.4619V63.959C93.4759 64.0775 93.0771 64.1367 92.667 64.1367C91.2816 64.1367 90.5752 63.4372 90.5479 62.0381V58.0527H89.4678V56.6035H90.5479V54.7852H92.5234ZM99.1748 64C99.0837 63.8223 99.0176 63.6012 98.9766 63.3369C98.498 63.8701 97.876 64.1367 97.1104 64.1367C96.3857 64.1367 95.7842 63.9271 95.3057 63.5078C94.8317 63.0885 94.5947 62.5599 94.5947 61.9219C94.5947 61.138 94.8841 60.5365 95.4629 60.1172C96.0462 59.6979 96.887 59.486 97.9854 59.4814H98.8945V59.0576C98.8945 58.7158 98.8057 58.4424 98.6279 58.2373C98.4548 58.0322 98.179 57.9297 97.8008 57.9297C97.4681 57.9297 97.2061 58.0094 97.0146 58.1689C96.8278 58.3285 96.7344 58.5472 96.7344 58.8252H94.7588C94.7588 58.3968 94.891 58.0003 95.1553 57.6357C95.4196 57.2712 95.7933 56.9863 96.2764 56.7812C96.7594 56.5716 97.3018 56.4668 97.9033 56.4668C98.8148 56.4668 99.5371 56.6969 100.07 57.1572C100.608 57.613 100.877 58.2555 100.877 59.085V62.291C100.882 62.9928 100.979 63.5238 101.171 63.8838V64H99.1748ZM97.541 62.626C97.8327 62.626 98.1016 62.5622 98.3477 62.4346C98.5938 62.3024 98.776 62.127 98.8945 61.9082V60.6367H98.1562C97.1673 60.6367 96.641 60.9785 96.5771 61.6621L96.5703 61.7783C96.5703 62.0244 96.6569 62.2272 96.8301 62.3867C97.0033 62.5462 97.2402 62.626 97.541 62.626ZM111.172 61.3887C111.172 61.0013 111.035 60.7051 110.762 60.5C110.488 60.2904 109.996 60.0716 109.285 59.8438C108.574 59.6113 108.011 59.3835 107.597 59.1602C106.466 58.5495 105.901 57.7269 105.901 56.6924C105.901 56.1546 106.052 55.6761 106.353 55.2568C106.658 54.833 107.093 54.5026 107.658 54.2656C108.228 54.0286 108.866 53.9102 109.572 53.9102C110.283 53.9102 110.917 54.04 111.473 54.2998C112.029 54.555 112.459 54.9173 112.765 55.3867C113.075 55.8561 113.229 56.3893 113.229 56.9863H111.179C111.179 56.5306 111.035 56.1774 110.748 55.9268C110.461 55.6715 110.058 55.5439 109.538 55.5439C109.037 55.5439 108.647 55.651 108.369 55.8652C108.091 56.0749 107.952 56.3529 107.952 56.6992C107.952 57.0228 108.114 57.2939 108.438 57.5127C108.766 57.7314 109.246 57.9365 109.88 58.1279C111.047 58.4788 111.896 58.9141 112.43 59.4336C112.963 59.9531 113.229 60.6003 113.229 61.375C113.229 62.2363 112.904 62.9131 112.252 63.4053C111.6 63.8929 110.723 64.1367 109.62 64.1367C108.854 64.1367 108.157 63.9977 107.528 63.7197C106.899 63.4372 106.419 63.0521 106.086 62.5645C105.758 62.0768 105.594 61.5117 105.594 60.8691H107.651C107.651 61.9674 108.308 62.5166 109.62 62.5166C110.108 62.5166 110.488 62.4186 110.762 62.2227C111.035 62.0221 111.172 61.7441 111.172 61.3887ZM117.898 64.1367C116.814 64.1367 115.93 63.804 115.246 63.1387C114.567 62.4733 114.228 61.5869 114.228 60.4795V60.2881C114.228 59.5452 114.371 58.8822 114.658 58.2988C114.945 57.7109 115.351 57.2598 115.875 56.9453C116.404 56.6263 117.005 56.4668 117.68 56.4668C118.691 56.4668 119.487 56.7858 120.065 57.4238C120.649 58.0618 120.94 58.9665 120.94 60.1377V60.9443H116.23C116.294 61.4274 116.486 61.8148 116.805 62.1064C117.128 62.3981 117.536 62.5439 118.028 62.5439C118.789 62.5439 119.384 62.2682 119.812 61.7168L120.783 62.8037C120.487 63.223 120.086 63.5511 119.58 63.7881C119.074 64.0205 118.514 64.1367 117.898 64.1367ZM117.673 58.0664C117.281 58.0664 116.962 58.1986 116.716 58.4629C116.474 58.7272 116.319 59.1055 116.251 59.5977H118.999V59.4404C118.99 59.0029 118.871 58.6657 118.644 58.4287C118.416 58.1872 118.092 58.0664 117.673 58.0664ZM126.225 58.4561C125.956 58.4196 125.719 58.4014 125.514 58.4014C124.766 58.4014 124.276 58.6543 124.044 59.1602V64H122.068V56.6035H123.935L123.989 57.4854C124.386 56.8063 124.935 56.4668 125.637 56.4668C125.855 56.4668 126.061 56.4964 126.252 56.5557L126.225 58.4561ZM130.073 61.5869L131.447 56.6035H133.512L131.017 64H129.13L126.635 56.6035H128.699L130.073 61.5869ZM136.472 64H134.489V56.6035H136.472V64ZM134.373 54.6895C134.373 54.3932 134.471 54.1494 134.667 53.958C134.868 53.7666 135.139 53.6709 135.48 53.6709C135.818 53.6709 136.087 53.7666 136.287 53.958C136.488 54.1494 136.588 54.3932 136.588 54.6895C136.588 54.9902 136.485 55.2363 136.28 55.4277C136.08 55.6191 135.813 55.7148 135.48 55.7148C135.148 55.7148 134.879 55.6191 134.674 55.4277C134.473 55.2363 134.373 54.9902 134.373 54.6895ZM141.182 62.5439C141.546 62.5439 141.842 62.4437 142.07 62.2432C142.298 62.0426 142.417 61.776 142.426 61.4434H144.278C144.274 61.9447 144.137 62.4049 143.868 62.8242C143.599 63.2389 143.23 63.5625 142.761 63.7949C142.296 64.0228 141.781 64.1367 141.216 64.1367C140.159 64.1367 139.325 63.8018 138.714 63.1318C138.103 62.4574 137.798 61.5277 137.798 60.3428V60.2129C137.798 59.0736 138.101 58.1644 138.707 57.4854C139.313 56.8063 140.145 56.4668 141.202 56.4668C142.127 56.4668 142.868 56.7311 143.424 57.2598C143.984 57.7839 144.269 58.4834 144.278 59.3584H142.426C142.417 58.9756 142.298 58.6657 142.07 58.4287C141.842 58.1872 141.542 58.0664 141.168 58.0664C140.708 58.0664 140.359 58.235 140.122 58.5723C139.89 58.9049 139.773 59.4473 139.773 60.1992V60.4043C139.773 61.1654 139.89 61.7122 140.122 62.0449C140.354 62.3776 140.708 62.5439 141.182 62.5439ZM148.811 64.1367C147.726 64.1367 146.842 63.804 146.158 63.1387C145.479 62.4733 145.14 61.5869 145.14 60.4795V60.2881C145.14 59.5452 145.283 58.8822 145.57 58.2988C145.857 57.7109 146.263 57.2598 146.787 56.9453C147.316 56.6263 147.917 56.4668 148.592 56.4668C149.604 56.4668 150.399 56.7858 150.978 57.4238C151.561 58.0618 151.853 58.9665 151.853 60.1377V60.9443H147.143C147.206 61.4274 147.398 61.8148 147.717 62.1064C148.04 62.3981 148.448 62.5439 148.94 62.5439C149.701 62.5439 150.296 62.2682 150.725 61.7168L151.695 62.8037C151.399 63.223 150.998 63.5511 150.492 63.7881C149.986 64.0205 149.426 64.1367 148.811 64.1367ZM148.585 58.0664C148.193 58.0664 147.874 58.1986 147.628 58.4629C147.386 58.7272 147.231 59.1055 147.163 59.5977H149.911V59.4404C149.902 59.0029 149.784 58.6657 149.556 58.4287C149.328 58.1872 149.004 58.0664 148.585 58.0664ZM156.986 61.9561C156.986 61.7145 156.866 61.5254 156.624 61.3887C156.387 61.2474 156.004 61.1221 155.476 61.0127C153.716 60.6436 152.837 59.8962 152.837 58.7705C152.837 58.1143 153.108 57.5674 153.65 57.1299C154.197 56.6878 154.91 56.4668 155.79 56.4668C156.729 56.4668 157.479 56.6878 158.039 57.1299C158.604 57.5719 158.887 58.1462 158.887 58.8525H156.911C156.911 58.57 156.82 58.3376 156.638 58.1553C156.455 57.9684 156.171 57.875 155.783 57.875C155.451 57.875 155.193 57.9502 155.011 58.1006C154.828 58.251 154.737 58.4424 154.737 58.6748C154.737 58.8936 154.84 59.0713 155.045 59.208C155.255 59.3402 155.605 59.4564 156.098 59.5566C156.59 59.6523 157.005 59.7617 157.342 59.8848C158.385 60.2676 158.907 60.9307 158.907 61.874C158.907 62.5485 158.618 63.0954 158.039 63.5146C157.46 63.9294 156.713 64.1367 155.797 64.1367C155.177 64.1367 154.626 64.0273 154.143 63.8086C153.664 63.5853 153.288 63.2822 153.015 62.8994C152.741 62.512 152.604 62.0951 152.604 61.6484H154.478C154.496 61.9993 154.626 62.2682 154.867 62.4551C155.109 62.6419 155.432 62.7354 155.838 62.7354C156.216 62.7354 156.501 62.6647 156.692 62.5234C156.888 62.3776 156.986 62.1885 156.986 61.9561Z" fill="#333333"/>
<path d="M43.1934 42.6641V19.1664H31.5244V11.5869H75.7842C85.7794 11.5869 92.7848 14.199 96.1458 19.1664H54.4102V42.6641H43.1934Z" fill="#1E6F5C"/>
<path d="M61.6248 42.6641V30.7478H72.8348V34.8055H76.0608C83.1405 34.8055 87.0346 32.093 87.0346 27.1702V27.0809C87.0346 22.0576 83.0325 19.1664 76.0608 19.1664H61.6248V11.5869H75.7976C86.4542 11.5869 93.7094 14.5618 96.7802 20.1878C96.8274 20.2827 96.8544 20.3385 96.8814 20.3832C97.9084 22.4304 98.4161 24.6303 98.3729 26.8464V26.9413C98.3729 36.7869 89.768 42.6641 75.3454 42.6641H61.6248Z" fill="#1E6F5C"/>
<path d="M117.986 42.9768C110.44 42.9768 103.772 41.3024 99.0884 38.188L104.919 32.467C108.932 34.7882 113.717 36.0208 118.613 35.9945C122.258 35.9945 123.02 34.7833 123.02 33.7619V33.667C123.02 31.8587 120.523 31.3117 116.71 30.6866C106.917 29.0122 100.836 26.8298 100.836 20.9805V20.8912C100.836 20.5173 100.836 20.1489 100.884 19.7749C101.055 18.265 101.679 16.8141 102.698 15.5533C103.717 14.2924 105.1 13.2612 106.721 12.5526L107.045 12.4131C106.694 14.4517 107.269 16.5257 108.658 18.2345C111.358 21.5052 115.765 22.521 119.713 23.2131L120.82 23.4084C122.21 23.6484 123.648 23.894 125.025 24.2122C128.905 25.1163 131.564 26.4949 133.096 28.4652C134.018 29.7181 134.486 31.1629 134.446 32.6289V32.7238C134.446 39.0698 128.143 42.9768 117.986 42.9768Z" fill="#1E6F5C"/>
<path d="M134.5 16.3367C134.499 17.2213 134.155 18.0824 133.519 18.7938C132.883 19.5052 131.989 20.0295 130.966 20.2898C129.944 20.5502 128.848 20.5329 127.838 20.2406C126.828 19.9483 125.958 19.3963 125.356 18.6654C124.753 17.9346 124.449 17.0633 124.488 16.1792C124.528 15.2951 124.908 14.4447 125.575 13.7526C126.241 13.0604 127.158 12.5629 128.191 12.3329C129.224 12.1028 130.318 12.1524 131.315 12.4743C132.254 12.7779 133.061 13.309 133.63 13.9982C134.198 14.6874 134.502 15.5024 134.5 16.3367Z" fill="#1E6F5C"/>
<path d="M131.315 12.4744V20.199C130.138 20.5783 128.833 20.5783 127.657 20.199V12.4744C128.833 12.0951 130.138 12.0951 131.315 12.4744Z" fill="white"/>
</g>
<defs>
<clipPath id="clip0_357_169">
<rect width="164" height="72" fill="white"/>
</clipPath>
</defs>
</svg>
