<svg width="138" height="78" viewBox="0 0 138 78" fill="none" xmlns="http://www.w3.org/2000/svg">
<path d="M15.5288 57.9951H13.3511V63.918H11.8862V57.9951H9.73779V56.8086H15.5288V57.9951ZM18.9224 59.958C18.7303 59.932 18.561 59.9189 18.4146 59.9189C17.8807 59.9189 17.5308 60.0996 17.3647 60.4609V63.918H15.9536V58.6348H17.2866L17.3257 59.2646C17.6089 58.7796 18.0011 58.5371 18.5024 58.5371C18.6587 58.5371 18.8052 58.5583 18.9419 58.6006L18.9224 59.958ZM22.521 63.918C22.4559 63.791 22.4087 63.6331 22.3794 63.4443C22.0376 63.8252 21.5933 64.0156 21.0464 64.0156C20.5288 64.0156 20.0991 63.8659 19.7573 63.5664C19.4188 63.2669 19.2495 62.8893 19.2495 62.4336C19.2495 61.8737 19.4562 61.444 19.8696 61.1445C20.2863 60.8451 20.8869 60.6937 21.6714 60.6904H22.3208V60.3877C22.3208 60.1436 22.2573 59.9482 22.1304 59.8018C22.0067 59.6553 21.8097 59.582 21.5396 59.582C21.3019 59.582 21.1147 59.639 20.978 59.7529C20.8446 59.8669 20.7778 60.0231 20.7778 60.2217H19.3667C19.3667 59.9157 19.4611 59.6325 19.6499 59.3721C19.8387 59.1117 20.1056 58.9082 20.4507 58.7617C20.7957 58.612 21.1831 58.5371 21.6128 58.5371C22.2638 58.5371 22.7798 58.7015 23.1606 59.0303C23.5448 59.3558 23.7368 59.8148 23.7368 60.4072V62.6973C23.7401 63.1986 23.8101 63.5778 23.9468 63.835V63.918H22.521ZM21.354 62.9365C21.5623 62.9365 21.7544 62.891 21.9302 62.7998C22.106 62.7054 22.2362 62.5801 22.3208 62.4238V61.5156H21.7935C21.0871 61.5156 20.7111 61.7598 20.6655 62.248L20.6606 62.3311C20.6606 62.5068 20.7225 62.6517 20.8462 62.7656C20.9699 62.8796 21.1392 62.9365 21.354 62.9365ZM26.1196 58.6348L26.1636 59.2451C26.5412 58.7731 27.0474 58.5371 27.6821 58.5371C28.242 58.5371 28.6587 58.7015 28.9321 59.0303C29.2056 59.359 29.3455 59.8506 29.3521 60.5049V63.918H27.9409V60.5391C27.9409 60.2396 27.8758 60.0231 27.7456 59.8896C27.6154 59.7529 27.3989 59.6846 27.0962 59.6846C26.6991 59.6846 26.4012 59.8538 26.2026 60.1924V63.918H24.7915V58.6348H26.1196ZM33.2876 62.458C33.2876 62.2855 33.2013 62.1504 33.0288 62.0527C32.8595 61.9518 32.5861 61.8623 32.2085 61.7842C30.952 61.5205 30.3237 60.9867 30.3237 60.1826C30.3237 59.7139 30.5174 59.3232 30.9048 59.0107C31.2954 58.695 31.8049 58.5371 32.4331 58.5371C33.1037 58.5371 33.6392 58.695 34.0396 59.0107C34.4432 59.3265 34.645 59.7367 34.645 60.2412H33.2339C33.2339 60.0394 33.1688 59.8734 33.0386 59.7432C32.9084 59.6097 32.7049 59.543 32.4282 59.543C32.1906 59.543 32.0067 59.5967 31.8765 59.7041C31.7463 59.8115 31.6812 59.9482 31.6812 60.1143C31.6812 60.2705 31.7544 60.3975 31.9009 60.4951C32.0506 60.5895 32.3013 60.6725 32.6528 60.7441C33.0044 60.8125 33.3006 60.8906 33.5415 60.9785C34.2869 61.252 34.6597 61.7256 34.6597 62.3994C34.6597 62.8812 34.453 63.2718 34.0396 63.5713C33.6261 63.8675 33.0923 64.0156 32.438 64.0156C31.9953 64.0156 31.6014 63.9375 31.2563 63.7812C30.9146 63.6217 30.646 63.4053 30.4507 63.1318C30.2554 62.8551 30.1577 62.5573 30.1577 62.2383H31.4956C31.5086 62.4889 31.6014 62.681 31.7739 62.8145C31.9465 62.9479 32.1776 63.0146 32.4673 63.0146C32.7375 63.0146 32.9409 62.9642 33.0776 62.8633C33.2176 62.7591 33.2876 62.624 33.2876 62.458ZM40.3286 61.3252C40.3286 62.139 40.1431 62.7917 39.772 63.2832C39.4041 63.7715 38.9061 64.0156 38.2778 64.0156C37.744 64.0156 37.3127 63.8301 36.9839 63.459V65.9492H35.5728V58.6348H36.8813L36.9302 59.1523C37.272 58.7422 37.7179 58.5371 38.2681 58.5371C38.9191 58.5371 39.4253 58.778 39.7866 59.2598C40.1479 59.7415 40.3286 60.4056 40.3286 61.252V61.3252ZM38.9175 61.2227C38.9175 60.7311 38.8296 60.3519 38.6538 60.085C38.4813 59.818 38.229 59.6846 37.897 59.6846C37.4543 59.6846 37.1499 59.8538 36.9839 60.1924V62.3555C37.1564 62.7038 37.464 62.8779 37.9067 62.8779C38.5806 62.8779 38.9175 62.3262 38.9175 61.2227ZM40.9878 61.2275C40.9878 60.7035 41.0887 60.2363 41.2905 59.8262C41.4924 59.416 41.7821 59.0986 42.1597 58.874C42.5405 58.6494 42.9816 58.5371 43.4829 58.5371C44.1958 58.5371 44.7769 58.7552 45.2261 59.1914C45.6785 59.6276 45.9308 60.2201 45.9829 60.9688L45.9927 61.3301C45.9927 62.1406 45.7664 62.7917 45.314 63.2832C44.8615 63.7715 44.2544 64.0156 43.4927 64.0156C42.731 64.0156 42.1222 63.7715 41.6665 63.2832C41.214 62.7949 40.9878 62.1309 40.9878 61.291V61.2275ZM42.3989 61.3301C42.3989 61.8314 42.4933 62.2155 42.6821 62.4824C42.8709 62.7461 43.1411 62.8779 43.4927 62.8779C43.8345 62.8779 44.1014 62.7477 44.2935 62.4873C44.4855 62.2236 44.5815 61.8037 44.5815 61.2275C44.5815 60.736 44.4855 60.3551 44.2935 60.085C44.1014 59.8148 43.8312 59.6797 43.4829 59.6797C43.1379 59.6797 42.8709 59.8148 42.6821 60.085C42.4933 60.3519 42.3989 60.7669 42.3989 61.3301ZM49.8306 59.958C49.6385 59.932 49.4692 59.9189 49.3228 59.9189C48.7889 59.9189 48.439 60.0996 48.2729 60.4609V63.918H46.8618V58.6348H48.1948L48.2339 59.2646C48.5171 58.7796 48.9093 58.5371 49.4106 58.5371C49.5669 58.5371 49.7134 58.5583 49.8501 58.6006L49.8306 59.958ZM52.4478 57.3359V58.6348H53.3511V59.6699H52.4478V62.3066C52.4478 62.502 52.4852 62.6419 52.5601 62.7266C52.6349 62.8112 52.7782 62.8535 52.9897 62.8535C53.146 62.8535 53.2843 62.8421 53.4048 62.8193V63.8887C53.1281 63.9733 52.8433 64.0156 52.5503 64.0156C51.5607 64.0156 51.0562 63.516 51.0366 62.5166V59.6699H50.2651V58.6348H51.0366V57.3359H52.4478ZM56.7202 63.918V56.8086H58.9077C59.5327 56.8086 60.091 56.9502 60.5825 57.2334C61.0773 57.5133 61.4631 57.9137 61.7397 58.4346C62.0164 58.9521 62.1548 59.5413 62.1548 60.2021V60.5293C62.1548 61.1901 62.0181 61.7777 61.7446 62.292C61.4744 62.8063 61.092 63.2051 60.5972 63.4883C60.1024 63.7715 59.5441 63.9147 58.9224 63.918H56.7202ZM58.1851 57.9951V62.7412H58.8931C59.466 62.7412 59.9038 62.554 60.2065 62.1797C60.5093 61.8053 60.6639 61.2699 60.6704 60.5732V60.1973C60.6704 59.4746 60.5207 58.9277 60.2212 58.5566C59.9217 58.1823 59.4839 57.9951 58.9077 57.9951H58.1851ZM66.1929 63.918C66.1278 63.791 66.0806 63.6331 66.0513 63.4443C65.7095 63.8252 65.2651 64.0156 64.7183 64.0156C64.2007 64.0156 63.771 63.8659 63.4292 63.5664C63.0907 63.2669 62.9214 62.8893 62.9214 62.4336C62.9214 61.8737 63.1281 61.444 63.5415 61.1445C63.9582 60.8451 64.5588 60.6937 65.3433 60.6904H65.9927V60.3877C65.9927 60.1436 65.9292 59.9482 65.8022 59.8018C65.6785 59.6553 65.4816 59.582 65.2114 59.582C64.9738 59.582 64.7866 59.639 64.6499 59.7529C64.5164 59.8669 64.4497 60.0231 64.4497 60.2217H63.0386C63.0386 59.9157 63.133 59.6325 63.3218 59.3721C63.5106 59.1117 63.7775 58.9082 64.1226 58.7617C64.4676 58.612 64.855 58.5371 65.2847 58.5371C65.9357 58.5371 66.4517 58.7015 66.8325 59.0303C67.2166 59.3558 67.4087 59.8148 67.4087 60.4072V62.6973C67.4119 63.1986 67.4819 63.5778 67.6187 63.835V63.918H66.1929ZM65.0259 62.9365C65.2342 62.9365 65.4263 62.891 65.6021 62.7998C65.7778 62.7054 65.908 62.5801 65.9927 62.4238V61.5156H65.4653C64.759 61.5156 64.383 61.7598 64.3374 62.248L64.3325 62.3311C64.3325 62.5068 64.3944 62.6517 64.5181 62.7656C64.6418 62.8796 64.811 62.9365 65.0259 62.9365ZM70.1821 57.3359V58.6348H71.0854V59.6699H70.1821V62.3066C70.1821 62.502 70.2196 62.6419 70.2944 62.7266C70.3693 62.8112 70.5125 62.8535 70.7241 62.8535C70.8804 62.8535 71.0187 62.8421 71.1392 62.8193V63.8887C70.8625 63.9733 70.5776 64.0156 70.2847 64.0156C69.2951 64.0156 68.7905 63.516 68.771 62.5166V59.6699H67.9995V58.6348H68.771V57.3359H70.1821ZM74.9331 63.918C74.868 63.791 74.8208 63.6331 74.7915 63.4443C74.4497 63.8252 74.0054 64.0156 73.4585 64.0156C72.9409 64.0156 72.5112 63.8659 72.1694 63.5664C71.8309 63.2669 71.6616 62.8893 71.6616 62.4336C71.6616 61.8737 71.8683 61.444 72.2817 61.1445C72.6984 60.8451 73.299 60.6937 74.0835 60.6904H74.7329V60.3877C74.7329 60.1436 74.6694 59.9482 74.5425 59.8018C74.4188 59.6553 74.2218 59.582 73.9517 59.582C73.714 59.582 73.5269 59.639 73.3901 59.7529C73.2567 59.8669 73.1899 60.0231 73.1899 60.2217H71.7788C71.7788 59.9157 71.8732 59.6325 72.062 59.3721C72.2508 59.1117 72.5177 58.9082 72.8628 58.7617C73.2078 58.612 73.5952 58.5371 74.0249 58.5371C74.6759 58.5371 75.1919 58.7015 75.5728 59.0303C75.9569 59.3558 76.1489 59.8148 76.1489 60.4072V62.6973C76.1522 63.1986 76.2222 63.5778 76.3589 63.835V63.918H74.9331ZM73.7661 62.9365C73.9744 62.9365 74.1665 62.891 74.3423 62.7998C74.5181 62.7054 74.6483 62.5801 74.7329 62.4238V61.5156H74.2056C73.4992 61.5156 73.1232 61.7598 73.0776 62.248L73.0728 62.3311C73.0728 62.5068 73.1346 62.6517 73.2583 62.7656C73.382 62.8796 73.5513 62.9365 73.7661 62.9365ZM83.5024 62.0527C83.5024 61.776 83.4048 61.5645 83.2095 61.418C83.0142 61.2682 82.6626 61.112 82.1548 60.9492C81.647 60.7832 81.245 60.6204 80.9487 60.4609C80.1414 60.0247 79.7378 59.4372 79.7378 58.6982C79.7378 58.3141 79.8452 57.9723 80.0601 57.6729C80.2782 57.3701 80.589 57.1341 80.9927 56.9648C81.3996 56.7956 81.8553 56.7109 82.3599 56.7109C82.8677 56.7109 83.3201 56.8037 83.7173 56.9893C84.1144 57.1715 84.422 57.4303 84.6401 57.7656C84.8615 58.1009 84.9722 58.4818 84.9722 58.9082H83.5073C83.5073 58.5827 83.4048 58.3304 83.1997 58.1514C82.9946 57.9691 82.7065 57.8779 82.3354 57.8779C81.9774 57.8779 81.6991 57.9544 81.5005 58.1074C81.3019 58.2572 81.2026 58.4557 81.2026 58.7031C81.2026 58.9342 81.3182 59.1279 81.5493 59.2842C81.7837 59.4404 82.1271 59.5869 82.5796 59.7236C83.4129 59.9743 84.02 60.2852 84.4009 60.6562C84.7817 61.0273 84.9722 61.4896 84.9722 62.043C84.9722 62.6582 84.7394 63.1416 84.2739 63.4932C83.8084 63.8415 83.1818 64.0156 82.394 64.0156C81.8472 64.0156 81.3491 63.9163 80.8999 63.7178C80.4507 63.516 80.1073 63.2409 79.8696 62.8926C79.6353 62.5443 79.5181 62.1406 79.5181 61.6816H80.9878C80.9878 62.4661 81.4565 62.8584 82.394 62.8584C82.7424 62.8584 83.0142 62.7884 83.2095 62.6484C83.4048 62.5052 83.5024 62.3066 83.5024 62.0527ZM88.3071 64.0156C87.5324 64.0156 86.9009 63.778 86.4126 63.3027C85.9276 62.8275 85.6851 62.1943 85.6851 61.4033V61.2666C85.6851 60.736 85.7876 60.2624 85.9927 59.8457C86.1978 59.4258 86.4875 59.1035 86.8618 58.8789C87.2394 58.651 87.6691 58.5371 88.1509 58.5371C88.8735 58.5371 89.4416 58.765 89.855 59.2207C90.2716 59.6764 90.48 60.3226 90.48 61.1592V61.7354H87.1157C87.1613 62.0804 87.298 62.3571 87.5259 62.5654C87.757 62.7738 88.0483 62.8779 88.3999 62.8779C88.9435 62.8779 89.3683 62.681 89.6743 62.2871L90.3677 63.0635C90.1561 63.363 89.8696 63.5973 89.5083 63.7666C89.147 63.9326 88.7466 64.0156 88.3071 64.0156ZM88.146 59.6797C87.866 59.6797 87.6382 59.7741 87.4624 59.9629C87.2899 60.1517 87.1792 60.4219 87.1304 60.7734H89.0933V60.6611C89.0868 60.3486 89.0021 60.1077 88.8394 59.9385C88.6766 59.766 88.4455 59.6797 88.146 59.6797ZM94.2544 59.958C94.0623 59.932 93.8931 59.9189 93.7466 59.9189C93.2127 59.9189 92.8628 60.0996 92.6968 60.4609V63.918H91.2856V58.6348H92.6187L92.6577 59.2646C92.9409 58.7796 93.3332 58.5371 93.8345 58.5371C93.9907 58.5371 94.1372 58.5583 94.2739 58.6006L94.2544 59.958ZM97.0034 62.1943L97.9849 58.6348H99.4595L97.6772 63.918H96.3296L94.5474 58.6348H96.022L97.0034 62.1943ZM101.574 63.918H100.158V58.6348H101.574V63.918ZM100.075 57.2676C100.075 57.056 100.145 56.8818 100.285 56.7451C100.428 56.6084 100.622 56.54 100.866 56.54C101.107 56.54 101.299 56.6084 101.442 56.7451C101.585 56.8818 101.657 57.056 101.657 57.2676C101.657 57.4824 101.583 57.6582 101.437 57.7949C101.294 57.9316 101.103 58 100.866 58C100.628 58 100.436 57.9316 100.29 57.7949C100.146 57.6582 100.075 57.4824 100.075 57.2676ZM104.938 62.8779C105.198 62.8779 105.41 62.8063 105.573 62.6631C105.736 62.5199 105.82 62.3294 105.827 62.0918H107.15C107.147 62.4499 107.049 62.7786 106.857 63.0781C106.665 63.3743 106.401 63.6055 106.066 63.7715C105.734 63.9342 105.366 64.0156 104.962 64.0156C104.207 64.0156 103.611 63.7764 103.175 63.2979C102.739 62.8161 102.521 62.152 102.521 61.3057V61.2129C102.521 60.3991 102.737 59.7497 103.17 59.2646C103.603 58.7796 104.197 58.5371 104.953 58.5371C105.613 58.5371 106.142 58.7259 106.54 59.1035C106.94 59.4779 107.143 59.9775 107.15 60.6025H105.827C105.82 60.3291 105.736 60.1077 105.573 59.9385C105.41 59.766 105.195 59.6797 104.928 59.6797C104.599 59.6797 104.35 59.8001 104.181 60.041C104.015 60.2786 103.932 60.666 103.932 61.2031V61.3496C103.932 61.8932 104.015 62.2839 104.181 62.5215C104.347 62.7591 104.599 62.8779 104.938 62.8779ZM110.387 64.0156C109.612 64.0156 108.981 63.778 108.493 63.3027C108.008 62.8275 107.765 62.1943 107.765 61.4033V61.2666C107.765 60.736 107.868 60.2624 108.073 59.8457C108.278 59.4258 108.568 59.1035 108.942 58.8789C109.319 58.651 109.749 58.5371 110.231 58.5371C110.954 58.5371 111.522 58.765 111.935 59.2207C112.352 59.6764 112.56 60.3226 112.56 61.1592V61.7354H109.196C109.241 62.0804 109.378 62.3571 109.606 62.5654C109.837 62.7738 110.128 62.8779 110.48 62.8779C111.024 62.8779 111.448 62.681 111.754 62.2871L112.448 63.0635C112.236 63.363 111.95 63.5973 111.588 63.7666C111.227 63.9326 110.827 64.0156 110.387 64.0156ZM110.226 59.6797C109.946 59.6797 109.718 59.7741 109.542 59.9629C109.37 60.1517 109.259 60.4219 109.21 60.7734H111.173V60.6611C111.167 60.3486 111.082 60.1077 110.919 59.9385C110.757 59.766 110.526 59.6797 110.226 59.6797ZM116.227 62.458C116.227 62.2855 116.141 62.1504 115.968 62.0527C115.799 61.9518 115.526 61.8623 115.148 61.7842C113.891 61.5205 113.263 60.9867 113.263 60.1826C113.263 59.7139 113.457 59.3232 113.844 59.0107C114.235 58.695 114.744 58.5371 115.373 58.5371C116.043 58.5371 116.579 58.695 116.979 59.0107C117.383 59.3265 117.584 59.7367 117.584 60.2412H116.173C116.173 60.0394 116.108 59.8734 115.978 59.7432C115.848 59.6097 115.644 59.543 115.368 59.543C115.13 59.543 114.946 59.5967 114.816 59.7041C114.686 59.8115 114.621 59.9482 114.621 60.1143C114.621 60.2705 114.694 60.3975 114.84 60.4951C114.99 60.5895 115.241 60.6725 115.592 60.7441C115.944 60.8125 116.24 60.8906 116.481 60.9785C117.226 61.252 117.599 61.7256 117.599 62.3994C117.599 62.8812 117.392 63.2718 116.979 63.5713C116.566 63.8675 116.032 64.0156 115.377 64.0156C114.935 64.0156 114.541 63.9375 114.196 63.7812C113.854 63.6217 113.585 63.4053 113.39 63.1318C113.195 62.8551 113.097 62.5573 113.097 62.2383H114.435C114.448 62.4889 114.541 62.681 114.713 62.8145C114.886 62.9479 115.117 63.0146 115.407 63.0146C115.677 63.0146 115.88 62.9642 116.017 62.8633C116.157 62.7591 116.227 62.624 116.227 62.458Z" fill="white"/>
<path d="M28.3515 48.789V23.3332H18.5325V15.1221H55.7754C64.1861 15.1221 70.0809 17.9518 72.909 23.3332H37.79V48.789H28.3515Z" fill="white"/>
<path d="M43.8608 48.789V35.8797H53.2937V40.2756H56.0083C61.9655 40.2756 65.2423 37.337 65.2423 32.0039V31.9072C65.2423 26.4653 61.8747 23.3332 56.0083 23.3332H43.8608V15.1221H55.7868C64.7539 15.1221 70.8589 18.3449 73.4428 24.4397C73.4826 24.5425 73.5053 24.603 73.528 24.6514C74.3922 26.8692 74.8194 29.2524 74.7831 31.6532V31.756C74.7831 42.4221 67.5423 48.789 55.4063 48.789H43.8608Z" fill="white"/>
<path d="M91.286 49.1273C84.9369 49.1273 79.326 47.3133 75.3848 43.9394L80.2914 37.7417C83.6675 40.2563 87.6941 41.5916 91.8141 41.5631C94.8808 41.5631 95.5225 40.251 95.5225 39.1445V39.0417C95.5225 37.0826 93.4213 36.4901 90.2127 35.8129C81.9724 33.9989 76.8556 31.6347 76.8556 25.298V25.2013C76.8556 24.7961 76.8556 24.3971 76.8954 23.992C77.0399 22.3562 77.5647 20.7844 78.4223 19.4185C79.2799 18.0525 80.4433 16.9354 81.8077 16.1678L82.0803 16.0166C81.7848 18.2251 82.2684 20.4719 83.4376 22.3231C85.7092 25.8664 89.4176 26.9668 92.7398 27.7166L93.6712 27.9282C94.8411 28.1882 96.0507 28.4543 97.2092 28.7989C100.475 29.7785 102.712 31.2719 104.001 33.4064C104.777 34.7637 105.171 36.3289 105.137 37.9171V38.0199C105.137 44.8947 99.8329 49.1273 91.286 49.1273Z" fill="white"/>
<path d="M103.25 18.7039C103.249 19.4151 103.022 20.1072 102.603 20.6787C102.184 21.2501 101.595 21.6709 100.922 21.8799C100.249 22.0888 99.5276 22.0749 98.8631 21.8404C98.1985 21.6058 97.6255 21.1627 97.2282 20.5755C96.831 19.9883 96.6305 19.2881 96.6565 18.5774C96.6825 17.8666 96.9336 17.1832 97.3726 16.6272C97.8116 16.0712 98.4153 15.6719 99.0952 15.4873C99.775 15.3028 100.496 15.3425 101.151 15.6009C101.77 15.8445 102.301 16.2709 102.676 16.8245C103.051 17.3782 103.251 18.0333 103.25 18.7039Z" fill="#27AE60" stroke="white" stroke-width="0.5"/>
<path d="M101.243 15.3678V22.0397C100.41 22.3672 99.4847 22.3672 98.6514 22.0397V15.3678C99.4847 15.0402 100.41 15.0402 101.243 15.3678Z" fill="white"/>
</svg>
